<?xml version="1.0" encoding="utf-8"?>
<!-- Generator: Adobe Illustrator 24.0.1, SVG Export Plug-In . SVG Version: 6.00 Build 0)  -->
<svg version="1.1" id="Capa_1" xmlns="http://www.w3.org/2000/svg" xmlns:xlink="http://www.w3.org/1999/xlink" x="0px" y="0px"
	 viewBox="0 0 800 800" style="enable-background:new 0 0 800 800;" xml:space="preserve">
<style type="text/css">
	.st0{clip-path:url(#SVGID_2_);fill:#D4F7FF;}
	.st1{clip-path:url(#SVGID_2_);}
	.st2{fill:#72190A;}
	.st3{opacity:0.5;fill:#72190A;}
	.st4{fill:#FDC17D;}
	.st5{opacity:0.5;fill:#FDC17D;}
	.st6{fill:#FFFFFF;}
	.st7{fill:#D65B3E;}
	.st8{fill:#543818;}
	.st9{fill:#FCEFE3;}
	.st10{opacity:0.2;fill:#C18F5D;}
	.st11{fill:#C5C6C8;}
	.st12{fill:none;stroke:#C5C6C8;stroke-width:2.4612;stroke-miterlimit:10;}
	.st13{fill:none;stroke:#C5C6C8;stroke-width:1.5382;stroke-miterlimit:10;}
	.st14{fill:#1C1D18;}
	.st15{fill:#C3E2E2;}
	.st16{fill:#0B0146;}
	.st17{fill:#E0F5F6;}
	.st18{opacity:0.2;clip-path:url(#SVGID_2_);fill:#C18F5D;}
</style>
<g>
	<defs>
		
			<ellipse id="SVGID_1_" transform="matrix(0.7071 -0.7071 0.7071 0.7071 -166.0099 400.1344)" cx="400" cy="400.46" rx="329.9" ry="329.9"/>
	</defs>
	<clipPath id="SVGID_2_">
		<use xlink:href="#SVGID_1_"  style="overflow:visible;"/>
	</clipPath>
	
		<ellipse transform="matrix(0.7071 -0.7071 0.7071 0.7071 -166.0099 400.1344)" class="st0" cx="400" cy="400.46" rx="329.9" ry="329.9"/>
	<g class="st1">
		<g>
			<path class="st2" d="M263.98,330.34c0-78.55,58.96-142.23,131.69-142.23c72.73,0,131.69,63.68,131.69,142.23l4.63,83.88
				c3.34,60.49-44.81,111.37-105.39,111.37h-53.25c-64.78,0-116.38-54.22-113.17-118.93L263.98,330.34z"/>
			<path class="st3" d="M414.2,527.07h-29.55c-47.43,0-85.87-38.45-85.87-85.87V285.7h201.29v155.5
				C500.07,488.62,461.63,527.07,414.2,527.07z"/>
			<path class="st4" d="M638.51,730.35l-16.89-66.02c-16.54-47.25-56.69-61.42-56.69-61.42l-77.94-33.07
				c-25.98-11.81-35.43-33.07-35.43-33.07l-0.5-1.51c-1.23-3.69-1.86-7.57-1.86-11.46v-9.46v-74.41h-46.43h-1.99h-46.43v74.41v9.46
				c0,3.9-0.63,7.77-1.86,11.46l-0.5,1.51c0,0-9.45,21.26-35.43,33.07l-77.95,33.07c0,0-40.15,14.17-56.69,61.42l-16.89,66.02
				H638.51z"/>
			<path class="st5" d="M401.95,495.71c-14.51,0.4-31.65-9.04-47.61-24.56v14.14c15.97,15.52,33.1,24.99,47.61,24.59
				c14.91-0.41,31.71-9.56,47.24-24.23v-14.18C433.66,486.15,416.86,495.29,401.95,495.71z"/>
			<path class="st4" d="M499.35,332.45c-2.1,0-5.12,2.1-8.23,4.89c0.49-51.3-8.57-97.31-90.81-96.55
				c-91.56,0.85-94.43,47.41-91.51,100.7c-4.38-4.59-9.42-9.04-12.48-9.04c-6.32,0-8.43,8.43-4.21,25.28
				c3.79,15.16,7.59,32.02,19.04,30.66c4.8,59.96,54.77,110.18,89.16,109.23c36.55-1.01,84.87-49.88,89.23-109.92
				c7.67-3.39,10.84-17.27,14.02-29.96C507.77,340.88,505.67,332.45,499.35,332.45z"/>
			<path class="st2" d="M312.79,233.62c0,0,64.46,109.97,185.8,106.17c0,0,3.24-67.92-15.17-98.59
				C460.67,203.28,373.46,176.74,312.79,233.62z"/>
			<path class="st2" d="M377.25,233.62c0,0,0,60.67-79.63,98.59c-45.68,21.75,15.17-98.59,15.17-98.59H377.25z"/>
			<g>
				<g>
					<path class="st6" d="M428.12,442.3c0,11.3-12.53,19.9-27.98,19.9c-15.45,0-27.98-8.6-27.98-19.9c0,0,12.1,5,27.83,5.47
						C412.78,448.16,428.12,442.3,428.12,442.3z"/>
					<path class="st7" d="M400.14,460.74c-13.33,0-24.47-9.28-27.28-18.41h-0.7c0,11.29,12.53,25.93,27.98,25.93
						c15.45,0,27.98-14.63,27.98-25.93h-0.71C424.61,451.46,413.47,460.74,400.14,460.74z"/>
				</g>
				<g>
					<g>
						<path class="st7" d="M372.16,442.3c0,0,0.21,0.07,0.61,0.21c0.4,0.13,0.99,0.31,1.73,0.55c0.75,0.21,1.66,0.5,2.71,0.77
							c1.06,0.25,2.24,0.58,3.55,0.88c1.31,0.27,2.72,0.62,4.23,0.89c1.52,0.24,3.1,0.55,4.75,0.78c1.66,0.19,3.37,0.45,5.11,0.6
							c1.74,0.1,3.51,0.2,5.28,0.29c1.79-0.06,3.59-0.01,5.33-0.16c1.73-0.22,3.44-0.32,5.08-0.61c1.64-0.32,3.25-0.51,4.74-0.85
							c1.5-0.34,2.92-0.6,4.22-0.95c1.29-0.35,2.49-0.62,3.54-0.91c1.05-0.3,1.96-0.56,2.72-0.77c1.5-0.45,2.35-0.72,2.35-0.72
							s-0.82,0.35-2.29,0.91c-0.74,0.26-1.64,0.58-2.67,0.94c-1.03,0.36-2.22,0.71-3.51,1.1c-1.29,0.39-2.71,0.72-4.21,1.11
							c-1.49,0.4-3.1,0.66-4.76,0.99c-1.66,0.32-3.42,0.45-5.18,0.69c-1.77,0.17-3.55,0.15-5.34,0.23c-1.85-0.1-3.61-0.25-5.39-0.37
							c-1.76-0.17-3.49-0.45-5.16-0.67c-1.67-0.24-3.26-0.63-4.77-0.92c-1.51-0.32-2.91-0.73-4.22-1.06
							c-2.6-0.72-4.71-1.48-6.18-2.02C372.97,442.67,372.16,442.3,372.16,442.3z"/>
					</g>
				</g>
				<g>
					<g>
						<g>
							<g>
								<path class="st8" d="M334.51,368.41c0,0,0.67-0.52,1.94-1.29c0.63-0.39,1.41-0.83,2.33-1.3c0.92-0.46,1.97-0.98,3.15-1.45
									c1.18-0.49,2.48-0.94,3.87-1.38c1.4-0.43,2.9-0.78,4.47-1.06c1.58-0.25,3.22-0.45,4.89-0.5c1.68-0.09,3.38,0.01,5.07,0.15
									c1.69,0.19,3.37,0.46,4.99,0.88c0.81,0.21,1.61,0.42,2.38,0.69c0.39,0.13,0.77,0.26,1.16,0.39
									c0.37,0.15,0.74,0.31,1.11,0.46c0.37,0.15,0.73,0.3,1.09,0.45c0.35,0.17,0.7,0.34,1.04,0.51c0.34,0.17,0.68,0.34,1.02,0.5
									c0.32,0.19,0.64,0.37,0.96,0.55c1.28,0.7,2.39,1.51,3.44,2.22c0.98,0.8,1.94,1.46,2.69,2.17c0.76,0.69,1.46,1.26,1.96,1.8
									c1.03,1.05,1.62,1.65,1.62,1.65l-0.07,0.07c0,0-0.61-0.58-1.67-1.6c-0.51-0.53-1.23-1.07-2-1.74
									c-0.76-0.69-1.73-1.31-2.73-2.08c-1.06-0.67-2.18-1.44-3.46-2.1c-0.32-0.17-0.64-0.34-0.96-0.52
									c-0.33-0.15-0.67-0.31-1.01-0.47c-0.34-0.16-0.69-0.32-1.04-0.48c-0.36-0.14-0.72-0.28-1.08-0.42
									c-0.36-0.14-0.73-0.28-1.1-0.42c-0.38-0.12-0.76-0.24-1.15-0.35c-0.76-0.26-1.55-0.45-2.35-0.63
									c-1.59-0.38-3.25-0.6-4.9-0.75c-1.66-0.09-3.32-0.14-4.96-0.01c-1.63,0.09-3.23,0.31-4.76,0.58c-1.54,0.25-3,0.61-4.39,0.96
									c-1.38,0.37-2.68,0.77-3.85,1.2c-1.18,0.42-2.25,0.83-3.19,1.23c-0.94,0.4-1.74,0.78-2.41,1.09
									c-1.32,0.64-2.05,1.06-2.05,1.06L334.51,368.41z"/>
							</g>
							<path class="st8" d="M366.72,368.64c0,4.21-3.94,7.62-8.8,7.62s-8.8-3.41-8.8-7.62c0-4.21,3.94-7.62,8.8-7.62
								S366.72,364.43,366.72,368.64z"/>
						</g>
						<g>
							<path class="st2" d="M333.05,353.31c0,0,0.66-0.59,1.92-1.46c1.27-0.87,3.13-2.06,5.52-3.2c2.39-1.13,5.27-2.29,8.51-3.06
								c1.61-0.39,3.31-0.69,5.04-0.89c1.73-0.2,3.51-0.3,5.28-0.27c0.89,0.02,1.77,0.06,2.65,0.16c0.88,0.06,1.75,0.19,2.62,0.33
								c1.73,0.26,3.4,0.65,5,1.11c1.6,0.46,3.11,1,4.5,1.62c0.7,0.28,1.38,0.59,2.01,0.92c0.64,0.32,1.27,0.61,1.84,0.93
								c1.15,0.66,2.21,1.24,3.09,1.86c0.89,0.6,1.68,1.1,2.28,1.58c1.22,0.94,1.91,1.47,1.91,1.47s-0.74-0.47-2.03-1.3
								c-0.63-0.44-1.45-0.88-2.37-1.41c-0.91-0.56-2-1.05-3.15-1.67c-0.58-0.3-1.21-0.55-1.85-0.84c-0.64-0.3-1.31-0.57-2.01-0.82
								c-1.39-0.55-2.9-1.01-4.46-1.45c-1.57-0.43-3.21-0.79-4.9-1.02c-0.84-0.12-1.69-0.23-2.55-0.28
								c-0.86-0.09-1.72-0.1-2.59-0.12c-1.73-0.06-3.46,0.02-5.16,0.19c-1.7,0.18-3.35,0.45-4.94,0.81
								c-1.58,0.37-3.11,0.76-4.52,1.23c-1.42,0.45-2.74,0.97-3.94,1.48c-2.4,1.04-4.34,2.04-5.65,2.83
								C333.76,352.8,333.05,353.31,333.05,353.31z"/>
						</g>
					</g>
					<path class="st9" d="M354.32,367.57c0,1.2-0.97,2.17-2.17,2.17c-1.2,0-2.17-0.97-2.17-2.17c0-1.2,0.97-2.17,2.17-2.17
						C353.35,365.4,354.32,366.37,354.32,367.57z"/>
				</g>
				<g>
					<g>
						<g>
							<g>
								<path class="st8" d="M469.45,368.49c0,0-0.73-0.42-2.05-1.06c-0.66-0.31-1.47-0.69-2.41-1.09c-0.94-0.4-2.01-0.81-3.19-1.23
									c-1.17-0.43-2.47-0.83-3.85-1.2c-1.39-0.35-2.85-0.71-4.39-0.96c-1.53-0.27-3.13-0.49-4.76-0.58
									c-1.63-0.13-3.3-0.08-4.96,0.01c-1.65,0.15-3.31,0.37-4.9,0.75c-0.8,0.18-1.59,0.37-2.35,0.63
									c-0.38,0.12-0.77,0.24-1.15,0.35c-0.37,0.14-0.74,0.28-1.1,0.42c-0.36,0.14-0.73,0.28-1.08,0.42
									c-0.35,0.16-0.69,0.32-1.04,0.48c-0.34,0.16-0.68,0.32-1.01,0.47c-0.32,0.18-0.64,0.35-0.96,0.52
									c-1.28,0.65-2.4,1.42-3.46,2.1c-1,0.76-1.97,1.39-2.73,2.08c-0.77,0.67-1.49,1.21-2,1.74c-1.06,1.02-1.67,1.6-1.67,1.6
									l-0.07-0.07c0,0,0.59-0.6,1.62-1.65c0.5-0.54,1.2-1.11,1.96-1.8c0.74-0.71,1.7-1.37,2.69-2.17
									c1.05-0.71,2.16-1.52,3.44-2.22c0.32-0.18,0.63-0.37,0.96-0.55c0.34-0.16,0.67-0.33,1.02-0.5c0.34-0.17,0.69-0.34,1.04-0.51
									c0.36-0.15,0.73-0.3,1.09-0.45c0.37-0.15,0.74-0.3,1.11-0.46c0.38-0.13,0.77-0.26,1.16-0.39c0.77-0.28,1.57-0.49,2.38-0.69
									c1.62-0.42,3.3-0.69,4.99-0.88c1.69-0.14,3.4-0.24,5.07-0.15c1.68,0.04,3.32,0.24,4.89,0.5c1.57,0.29,3.08,0.63,4.47,1.06
									c1.39,0.44,2.7,0.89,3.87,1.38c1.18,0.47,2.23,0.99,3.15,1.45c0.92,0.47,1.7,0.91,2.33,1.3c1.27,0.76,1.94,1.29,1.94,1.29
									L469.45,368.49z"/>
							</g>
							<path class="st8" d="M437.29,368.64c0,4.21,3.94,7.62,8.8,7.62c4.85,0,8.79-3.41,8.79-7.62c0-4.21-3.94-7.62-8.79-7.62
								C441.23,361.02,437.29,364.43,437.29,368.64z"/>
						</g>
						<g>
							<path class="st2" d="M470.97,353.31c0,0-0.71-0.51-2.03-1.29c-1.31-0.79-3.25-1.8-5.65-2.83c-1.2-0.51-2.52-1.03-3.94-1.48
								c-1.42-0.47-2.94-0.86-4.52-1.23c-1.59-0.36-3.24-0.63-4.94-0.81c-1.7-0.17-3.43-0.25-5.16-0.19
								c-0.86,0.02-1.73,0.03-2.59,0.12c-0.86,0.05-1.71,0.16-2.55,0.28c-1.69,0.23-3.33,0.59-4.9,1.02
								c-1.56,0.44-3.07,0.9-4.46,1.45c-0.7,0.25-1.38,0.52-2.01,0.82c-0.64,0.29-1.27,0.55-1.85,0.84
								c-1.15,0.62-2.25,1.11-3.15,1.67c-0.92,0.54-1.74,0.97-2.37,1.41c-1.29,0.83-2.03,1.3-2.03,1.3s0.7-0.53,1.91-1.47
								c0.6-0.48,1.39-0.98,2.28-1.58c0.87-0.63,1.94-1.2,3.09-1.86c0.58-0.33,1.2-0.61,1.84-0.93c0.63-0.33,1.31-0.63,2.01-0.92
								c1.39-0.61,2.9-1.16,4.5-1.62c1.6-0.46,3.27-0.85,5-1.11c0.86-0.14,1.73-0.26,2.62-0.33c0.88-0.1,1.77-0.13,2.65-0.16
								c1.78-0.03,3.55,0.07,5.28,0.27c1.73,0.2,3.42,0.51,5.04,0.89c3.23,0.77,6.12,1.93,8.51,3.06c2.39,1.14,4.25,2.33,5.52,3.2
								C470.31,352.73,470.97,353.31,470.97,353.31z"/>
						</g>
					</g>
					<path class="st9" d="M449.69,367.57c0,1.2,0.97,2.17,2.17,2.17c1.2,0,2.17-0.97,2.17-2.17c0-1.2-0.97-2.17-2.17-2.17
						C450.67,365.4,449.69,366.37,449.69,367.57z"/>
				</g>
			</g>
			<path class="st10" d="M383.11,423.99c0,0,14.72,15.94,32,0C415.11,423.99,400.14,433.4,383.11,423.99z"/>
		</g>
		<g>
			<g>
				<g>
					<path class="st11" d="M295.69,391.24h-9.41c-5.89,0-10.67-4.78-10.67-10.67v-55.94c0-5.89,4.78-10.67,10.67-10.67h9.41
						c3.98,0,7.2,3.22,7.2,7.2v62.89C302.89,388.02,299.67,391.24,295.69,391.24z"/>
					<path class="st11" d="M299.86,354.11c0,11.3-8.14,20.46-18.18,20.46c-10.04,0-18.18-9.16-18.18-20.46
						c0-11.3,8.14-20.46,18.18-20.46C291.72,333.66,299.86,342.81,299.86,354.11z"/>
				</g>
				<g>
					<path class="st11" d="M501.02,391.24h9.41c5.89,0,10.67-4.78,10.67-10.67v-55.94c0-5.89-4.78-10.67-10.67-10.67h-9.41
						c-3.97,0-7.2,3.22-7.2,7.2v62.89C493.82,388.02,497.05,391.24,501.02,391.24z"/>
					<path class="st11" d="M496.85,354.11c0,11.3,8.14,20.46,18.19,20.46c10.04,0,18.18-9.16,18.18-20.46
						c0-11.3-8.14-20.46-18.18-20.46C505,333.66,496.85,342.81,496.85,354.11z"/>
				</g>
				<path class="st12" d="M507.46,339.12v-51.26c0-29.07-20.88-53.94-49.51-58.97l-9.89-1.74c-34.91-6.13-61.5-6.4-96.5-0.8
					l-10.37,1.66c-29.05,4.65-50.41,29.71-50.41,59.12v82.29"/>
			</g>
			<g>
				<path class="st13" d="M508.97,374.57c0,0,7.58,81.83-81.83,83.35"/>
				<path class="st14" d="M430.43,467.01h-21.71c-4.88,0-8.84-3.96-8.84-8.84v-2.02c0-4.88,3.96-8.84,8.84-8.84h21.71
					c4.88,0,8.84,3.96,8.84,8.84v2.02C439.27,463.05,435.31,467.01,430.43,467.01z"/>
			</g>
		</g>
		<rect x="368.21" y="586.29" class="st15" width="63.41" height="59.89"/>
		<path class="st16" d="M639.82,730.35l-18.19-66.02c-16.54-47.25-56.69-61.42-56.69-61.42l-92.88-43.2
			c-87.21,106.18-140.3,0-140.3,0l-93.14,43.2c0,0-40.15,14.17-56.69,61.42l-19.42,66.02H639.82z"/>
		<g>
			<polygon class="st17" points="455,541.76 403.01,588.57 445.35,617.52 475.84,559.71 			"/>
			<polygon class="st17" points="349.13,541.76 400.81,588.57 358.78,617.52 328.29,559.71 			"/>
		</g>
	</g>
	<path class="st18" d="M400,188.23c-0.02-0.02-0.03-0.03-0.04-0.04c-74.69-2.56-135.98,62.07-135.98,142.16l-3.79,76.33
		c-2.89,58.22,38.6,107.93,94.14,117.31c-0.02,3.84-0.64,7.65-1.85,11.29l-0.5,1.51c0,0-0.88,1.97-2.81,5.01l-0.04-0.03
		l-20.83,17.95l0.68,1.3l-90.37,41.91c0,0-40.15,14.17-56.69,61.42l-19.42,66.02h2.52H400V188.23z"/>
</g>
</svg>
